<?xml version="1.0" standalone="no"?>
<!DOCTYPE svg PUBLIC "-//W3C//DTD SVG 20010904//EN"
 "http://www.w3.org/TR/2001/REC-SVG-20010904/DTD/svg10.dtd">
<svg version="1.0" xmlns="http://www.w3.org/2000/svg"
 width="906.000000pt" height="892.000000pt" viewBox="0 0 906.000000 892.000000"
 preserveAspectRatio="xMidYMid meet">

<g transform="translate(0.000000,892.000000) scale(0.100000,-0.100000)"
fill="#000000" stroke="none">
<path d="M4425 8080 c-2172 -5 -2852 -9 -2889 -18 -75 -18 -186 -77 -257 -136
-112 -92 -187 -210 -228 -357 l-21 -75 0 -2865 c0 -2818 1 -2865 20 -2939 62
-233 223 -407 457 -492 l58 -21 2895 -3 c2887 -3 2895 -3 2970 18 100 27 180
68 261 133 113 91 189 208 230 355 20 73 21 95 21 718 0 610 -1 644 -18 657
-41 29 -845 423 -1339 655 -44 21 -179 85 -300 143 -222 105 -496 235 -635
300 -41 19 -122 57 -180 85 -134 63 -212 100 -495 232 -126 59 -275 129 -330
155 -55 26 -226 106 -380 177 -154 72 -331 154 -393 184 -62 30 -114 54 -116
54 -2 0 -46 20 -97 44 -187 88 -696 319 -764 348 -168 71 -190 84 -177 105 7
10 56 4 167 -21 34 -8 -30 21 -107 49 -35 12 -48 22 -48 36 0 13 7 19 23 19
12 1 56 3 97 5 41 2 152 7 245 11 214 9 176 19 -134 34 -124 5 -227 12 -229
15 -14 13 13 34 65 49 74 22 115 38 110 42 -2 2 -40 -3 -86 -12 -45 -9 -89
-13 -97 -10 -25 10 -15 35 24 56 20 11 46 26 57 33 252 159 338 217 319 217
-12 0 -214 -101 -323 -162 -57 -32 -110 -58 -117 -58 -31 0 -22 25 32 85 31
36 54 68 51 71 -3 3 -30 -19 -61 -50 -85 -86 -128 -72 -74 25 135 246 251 489
175 369 -12 -20 -34 -51 -48 -70 -15 -19 -66 -100 -114 -180 -47 -80 -89 -148
-93 -152 -4 -4 -14 -3 -22 2 -12 8 -11 22 8 107 29 128 27 148 -4 48 -37 -118
-51 -146 -69 -139 -13 5 -15 31 -15 160 0 170 -19 376 -31 334 -4 -14 -8 -88
-9 -165 -1 -77 -5 -183 -9 -235 -5 -86 -8 -95 -27 -98 -18 -3 -24 8 -47 80
-44 136 -62 148 -27 17 40 -151 17 -159 -65 -21 -87 145 -220 343 -223 332 -4
-11 65 -150 159 -321 38 -69 69 -131 69 -137 0 -7 -7 -15 -16 -19 -11 -4 -38
16 -85 63 -110 109 -81 50 34 -68 9 -10 17 -22 17 -27 0 -25 -37 -13 -155 51
-184 98 -315 162 -321 156 -6 -7 139 -106 298 -202 71 -43 128 -84 128 -92 0
-20 -50 -18 -139 6 -144 38 -116 17 43 -32 62 -20 88 -39 73 -55 -3 -3 -52 -7
-109 -9 -293 -10 -393 -16 -406 -23 -9 -5 44 -11 134 -15 336 -16 379 -20 382
-38 2 -12 -19 -23 -100 -49 -102 -34 -115 -54 -16 -25 75 21 138 24 138 7 0
-9 -172 -121 -185 -121 -7 0 -208 -132 -240 -158 -29 -24 -29 -25 -5 -17 35
11 163 75 313 157 120 66 157 77 157 45 0 -7 -14 -26 -31 -43 -45 -42 -112
-124 -102 -124 4 0 42 32 83 70 41 39 79 69 85 67 14 -5 7 -58 -10 -77 -15
-17 -165 -303 -190 -363 -9 -22 -12 -36 -6 -33 10 7 174 261 232 361 24 41 41
60 54 60 17 0 20 -6 18 -48 -2 -27 -7 -56 -12 -65 -5 -9 -12 -37 -15 -62 -9
-62 7 -34 39 68 28 87 39 102 61 80 11 -10 15 -61 19 -213 3 -110 9 -225 12
-255 l7 -55 8 45 c4 25 12 144 16 265 6 185 9 220 22 220 14 0 22 -19 66 -159
26 -82 29 -45 5 52 -28 106 -27 122 3 122 20 0 37 -22 104 -137 88 -149 192
-304 192 -285 0 12 -128 270 -190 382 -32 58 -39 100 -17 100 7 0 35 -23 62
-51 51 -52 105 -95 105 -84 0 3 -32 39 -70 80 -73 77 -81 92 -54 102 17 6 34
-1 151 -69 45 -27 84 -48 87 -48 9 0 525 -318 563 -346 17 -13 34 -24 38 -24
3 0 52 -30 108 -66 56 -37 118 -76 137 -89 19 -12 87 -56 150 -97 63 -41 156
-101 205 -133 146 -94 1310 -869 1555 -1035 124 -84 335 -227 470 -318 269
-182 303 -205 310 -212 3 -3 104 -72 225 -153 121 -82 301 -204 400 -272 99
-68 250 -171 337 -229 86 -58 159 -110 163 -117 11 -16 7 -152 -6 -219 -44
-235 -223 -424 -458 -484 -57 -15 -298 -16 -2625 -16 -2449 0 -2564 1 -2631
19 -92 24 -148 50 -222 104 -106 78 -185 198 -226 344 l-21 78 2 2535 c1 1809
5 2555 13 2605 7 43 28 105 54 160 72 151 196 260 361 316 l69 24 2610 0 2610
0 64 -24 c150 -57 283 -176 346 -306 74 -154 68 -34 71 -1561 1 -754 -2 -1377
-6 -1384 -6 -9 -41 -4 -156 24 -130 32 -584 135 -654 149 -14 3 -95 21 -180
41 -85 21 -222 52 -305 70 -146 33 -450 102 -570 131 -33 8 -130 30 -215 49
-485 110 -649 147 -685 156 -22 6 -132 31 -245 56 -433 97 -813 184 -1095 250
-82 20 -181 42 -219 50 -38 7 -78 16 -90 20 -40 12 -2 -12 69 -43 39 -17 201
-86 360 -153 160 -67 335 -141 390 -165 55 -24 172 -73 260 -110 239 -100 486
-205 520 -220 48 -21 244 -105 310 -132 33 -13 74 -30 90 -38 30 -13 207 -88
570 -241 110 -47 252 -107 315 -134 63 -27 192 -81 285 -120 94 -40 184 -78
200 -85 17 -8 122 -52 235 -100 113 -47 219 -92 235 -99 17 -8 91 -39 165 -71
74 -31 144 -60 155 -65 11 -5 97 -41 190 -80 94 -39 184 -77 200 -85 17 -8 68
-31 115 -50 47 -20 91 -39 98 -42 9 -4 12 408 12 2043 0 1950 -1 2052 -19
2119 -55 213 -198 380 -398 466 -44 19 -236 62 -251 57 -4 -2 -1285 -5 -2847
-8z"/>
<path d="M1824 2602 c-32 -21 -34 -53 -34 -486 l0 -436 283 0 c265 0 285 1
301 19 18 20 14 62 -8 80 -8 6 -101 12 -232 13 l-219 3 -5 393 c-5 375 -6 394
-24 408 -22 15 -45 18 -62 6z"/>
<path d="M2927 2595 c-16 -15 -76 -200 -145 -445 -6 -19 -27 -91 -47 -160 -20
-69 -39 -134 -42 -145 -3 -11 -11 -41 -20 -67 -13 -42 -13 -49 3 -72 11 -18
25 -26 44 -26 39 0 50 18 85 143 l16 57 139 0 139 0 21 -72 c38 -130 49 -145
98 -127 46 17 44 43 -13 239 -9 30 -25 84 -35 120 -43 155 -82 287 -90 315 -6
17 -22 71 -36 120 -14 50 -32 100 -40 113 -17 25 -55 29 -77 7z m92 -436 c22
-81 41 -149 41 -153 0 -3 -45 -6 -100 -6 -55 0 -100 3 -100 6 0 9 91 297 97
307 10 17 21 -11 62 -154z"/>
<path d="M3597 2590 c-34 -27 -67 -82 -67 -111 0 -30 32 -91 79 -149 20 -24
41 -51 48 -60 64 -82 223 -283 284 -360 56 -69 74 -98 67 -107 -8 -10 -54 -13
-169 -13 -166 0 -189 6 -189 49 0 27 -34 53 -66 49 -74 -8 -65 -115 14 -175
l44 -33 204 0 205 0 36 35 c47 46 56 106 24 161 -20 33 -108 147 -271 349
-105 130 -190 245 -190 255 0 7 57 10 172 8 l172 -3 26 -45 c29 -50 60 -62 91
-34 34 31 22 103 -26 149 -56 55 -55 55 -265 55 -183 0 -199 -1 -223 -20z"/>
<path d="M4410 2145 l0 -465 278 0 279 0 23 25 24 25 -21 28 -20 27 -219 5
c-120 4 -220 7 -222 8 -1 1 -1 66 0 145 l3 142 100 3 c87 2 102 5 118 23 22
27 22 41 -1 67 -16 19 -31 22 -118 24 l-99 3 -3 143 c-2 110 0 142 10 143 7 0
103 1 213 2 174 2 205 4 228 20 32 21 34 36 6 71 l-20 26 -280 0 -279 0 0
-465z"/>
<path d="M5288 2193 c-1 -230 -1 -431 0 -448 5 -58 60 -85 95 -47 15 16 17 49
17 255 l0 237 44 0 44 0 149 -252 c143 -244 150 -253 182 -256 34 -4 60 17 61
49 0 8 -30 67 -66 130 -36 62 -76 132 -87 154 -12 22 -36 62 -54 90 -49 73
-45 85 23 85 70 0 121 27 157 83 24 36 27 51 27 127 -1 76 -4 89 -28 124 -56
81 -54 81 -323 84 l-239 3 -2 -418z m460 283 c8 -8 13 -38 14 -75 1 -94 1 -94
-194 -95 l-163 -1 -3 92 -3 92 38 3 c83 8 298 -3 311 -16z"/>
<path d="M6235 2601 c-58 -25 -93 -112 -69 -171 13 -30 149 -208 382 -500 51
-63 90 -119 89 -125 -4 -11 -295 -20 -333 -11 -13 4 -27 21 -37 46 -8 22 -23
43 -31 46 -29 11 -63 -5 -76 -35 -10 -25 -9 -36 8 -74 11 -24 35 -56 54 -71
l35 -26 210 0 210 0 35 34 c44 42 56 92 33 139 -8 17 -91 129 -185 247 -232
294 -290 370 -290 381 0 6 69 8 177 7 l178 -3 13 -30 c23 -53 29 -60 51 -63
36 -6 61 25 61 74 0 36 -7 49 -44 91 l-44 48 -203 2 c-112 1 -213 -1 -224 -6z"/>
</g>
</svg>
